<mxfile host="app.diagrams.net" agent="Mozilla/5.0 (Windows NT 10.0; Win64; x64) AppleWebKit/537.36 (KHTML, like Gecko) Chrome/138.0.0.0 Safari/537.36" version="28.0.4">
  <diagram name="Página-1" id="nDO6c9fMUiC2ZfDT-kFN">
    <mxGraphModel grid="1" page="1" gridSize="10" guides="1" tooltips="1" connect="1" arrows="1" fold="1" pageScale="1" pageWidth="827" pageHeight="1169" math="0" shadow="0">
      <root>
        <mxCell id="0" />
        <mxCell id="1" parent="0" />
        <mxCell id="0wRoc-RUMOzECIPEcyJ_-1" value="Cuenta Inactivada (Administrador)" style="rounded=0;orthogonalLoop=1;jettySize=auto;html=1;entryX=-0.002;entryY=0.075;entryDx=0;entryDy=0;exitX=1;exitY=0.5;exitDx=0;exitDy=0;entryPerimeter=0;strokeColor=light-dark(#FF9090,#FF9090);" edge="1" parent="1" source="0wRoc-RUMOzECIPEcyJ_-23" target="0wRoc-RUMOzECIPEcyJ_-8">
          <mxGeometry x="0.0463" y="-10" relative="1" as="geometry">
            <mxPoint as="offset" />
          </mxGeometry>
        </mxCell>
        <mxCell id="0wRoc-RUMOzECIPEcyJ_-2" value="" style="ellipse;html=1;shape=endState;fillColor=#000000;strokeColor=#ff0000;" vertex="1" parent="1">
          <mxGeometry x="1170" y="286" width="30" height="30" as="geometry" />
        </mxCell>
        <mxCell id="0wRoc-RUMOzECIPEcyJ_-3" style="rounded=0;orthogonalLoop=1;jettySize=auto;html=1;entryX=-0.004;entryY=0.074;entryDx=0;entryDy=0;exitX=1;exitY=0.5;exitDx=0;exitDy=0;entryPerimeter=0;strokeColor=light-dark(#FF9090,#FF9090);" edge="1" parent="1" source="0wRoc-RUMOzECIPEcyJ_-23" target="0wRoc-RUMOzECIPEcyJ_-13">
          <mxGeometry relative="1" as="geometry" />
        </mxCell>
        <mxCell id="0wRoc-RUMOzECIPEcyJ_-4" value="Iniciar Sesión" style="edgeLabel;html=1;align=center;verticalAlign=middle;resizable=0;points=[];" connectable="0" vertex="1" parent="0wRoc-RUMOzECIPEcyJ_-3">
          <mxGeometry x="0.3946" y="-2" relative="1" as="geometry">
            <mxPoint x="-41" y="37" as="offset" />
          </mxGeometry>
        </mxCell>
        <mxCell id="0wRoc-RUMOzECIPEcyJ_-5" style="rounded=0;orthogonalLoop=1;jettySize=auto;html=1;entryX=0;entryY=0.5;entryDx=0;entryDy=0;exitX=0.997;exitY=0.018;exitDx=0;exitDy=0;exitPerimeter=0;strokeColor=light-dark(#FF9090,#FF9090);" edge="1" parent="1" source="0wRoc-RUMOzECIPEcyJ_-8" target="0wRoc-RUMOzECIPEcyJ_-2">
          <mxGeometry relative="1" as="geometry" />
        </mxCell>
        <mxCell id="0wRoc-RUMOzECIPEcyJ_-26" style="edgeStyle=orthogonalEdgeStyle;rounded=0;orthogonalLoop=1;jettySize=auto;html=1;entryX=0.497;entryY=1.011;entryDx=0;entryDy=0;entryPerimeter=0;strokeColor=light-dark(#FF9090,#FF9090);" edge="1" parent="1" source="0wRoc-RUMOzECIPEcyJ_-6" target="0wRoc-RUMOzECIPEcyJ_-25">
          <mxGeometry relative="1" as="geometry">
            <mxPoint x="890" y="310" as="targetPoint" />
          </mxGeometry>
        </mxCell>
        <mxCell id="0wRoc-RUMOzECIPEcyJ_-27" value="Reactivar Cuenta" style="edgeLabel;html=1;align=center;verticalAlign=middle;resizable=0;points=[];" connectable="0" vertex="1" parent="0wRoc-RUMOzECIPEcyJ_-26">
          <mxGeometry x="-0.0438" y="1" relative="1" as="geometry">
            <mxPoint as="offset" />
          </mxGeometry>
        </mxCell>
        <mxCell id="0wRoc-RUMOzECIPEcyJ_-6" value="Inactivo" style="swimlane;fontStyle=0;childLayout=stackLayout;horizontal=1;startSize=26;fillColor=none;horizontalStack=0;resizeParent=1;resizeParentMax=0;resizeLast=0;collapsible=1;marginBottom=0;whiteSpace=wrap;html=1;" vertex="1" parent="1">
          <mxGeometry x="800" y="398" width="210" height="80" as="geometry" />
        </mxCell>
        <mxCell id="0wRoc-RUMOzECIPEcyJ_-7" value="Entry/Eliminar Sesión" style="text;strokeColor=none;fillColor=none;align=left;verticalAlign=top;spacingLeft=4;spacingRight=4;overflow=hidden;rotatable=0;points=[[0,0.5],[1,0.5]];portConstraint=eastwest;whiteSpace=wrap;html=1;" vertex="1" parent="0wRoc-RUMOzECIPEcyJ_-6">
          <mxGeometry y="26" width="210" height="26" as="geometry" />
        </mxCell>
        <mxCell id="0wRoc-RUMOzECIPEcyJ_-8" value="Do/Restringir Acceso" style="text;strokeColor=none;fillColor=none;align=left;verticalAlign=top;spacingLeft=4;spacingRight=4;overflow=hidden;rotatable=0;points=[[0,0.5],[1,0.5]];portConstraint=eastwest;whiteSpace=wrap;html=1;" vertex="1" parent="0wRoc-RUMOzECIPEcyJ_-6">
          <mxGeometry y="52" width="210" height="28" as="geometry" />
        </mxCell>
        <mxCell id="0wRoc-RUMOzECIPEcyJ_-10" style="rounded=0;orthogonalLoop=1;jettySize=auto;html=1;entryX=0;entryY=0.5;entryDx=0;entryDy=0;exitX=0.993;exitY=0.133;exitDx=0;exitDy=0;exitPerimeter=0;strokeColor=light-dark(#FF9090,#FF9090);fillColor=#a20025;" edge="1" parent="1" source="0wRoc-RUMOzECIPEcyJ_-13" target="0wRoc-RUMOzECIPEcyJ_-2">
          <mxGeometry relative="1" as="geometry" />
        </mxCell>
        <mxCell id="0wRoc-RUMOzECIPEcyJ_-11" value="Activo" style="swimlane;fontStyle=0;childLayout=stackLayout;horizontal=1;startSize=26;fillColor=none;horizontalStack=0;resizeParent=1;resizeParentMax=0;resizeLast=0;collapsible=1;marginBottom=0;whiteSpace=wrap;html=1;" vertex="1" parent="1">
          <mxGeometry x="800" y="110" width="210" height="108" as="geometry" />
        </mxCell>
        <mxCell id="0wRoc-RUMOzECIPEcyJ_-12" value="Entry/Validar Inicio Sesión&amp;nbsp;" style="text;strokeColor=none;fillColor=none;align=left;verticalAlign=top;spacingLeft=4;spacingRight=4;overflow=hidden;rotatable=0;points=[[0,0.5],[1,0.5]];portConstraint=eastwest;whiteSpace=wrap;html=1;" vertex="1" parent="0wRoc-RUMOzECIPEcyJ_-11">
          <mxGeometry y="26" width="210" height="26" as="geometry" />
        </mxCell>
        <mxCell id="0wRoc-RUMOzECIPEcyJ_-13" value="Do/Permitir Acceso al Sistema&amp;nbsp;" style="text;strokeColor=none;fillColor=none;align=left;verticalAlign=top;spacingLeft=4;spacingRight=4;overflow=hidden;rotatable=0;points=[[0,0.5],[1,0.5]];portConstraint=eastwest;whiteSpace=wrap;html=1;" vertex="1" parent="0wRoc-RUMOzECIPEcyJ_-11">
          <mxGeometry y="52" width="210" height="28" as="geometry" />
        </mxCell>
        <mxCell id="0wRoc-RUMOzECIPEcyJ_-25" value="Exit/Cerrar Sesión" style="text;strokeColor=none;fillColor=none;align=left;verticalAlign=top;spacingLeft=4;spacingRight=4;overflow=hidden;rotatable=0;points=[[0,0.5],[1,0.5]];portConstraint=eastwest;whiteSpace=wrap;html=1;" vertex="1" parent="0wRoc-RUMOzECIPEcyJ_-11">
          <mxGeometry y="80" width="210" height="28" as="geometry" />
        </mxCell>
        <mxCell id="0wRoc-RUMOzECIPEcyJ_-15" value="" style="ellipse;html=1;shape=startState;fillColor=#000000;strokeColor=#ff0000;" vertex="1" parent="1">
          <mxGeometry x="100" y="286" width="30" height="30" as="geometry" />
        </mxCell>
        <mxCell id="0wRoc-RUMOzECIPEcyJ_-16" value="" style="edgeStyle=orthogonalEdgeStyle;html=1;verticalAlign=bottom;endArrow=open;endSize=8;strokeColor=#ff0000;rounded=0;entryX=-0.01;entryY=0.069;entryDx=0;entryDy=0;entryPerimeter=0;" edge="1" parent="1" source="0wRoc-RUMOzECIPEcyJ_-15" target="0wRoc-RUMOzECIPEcyJ_-21">
          <mxGeometry relative="1" as="geometry">
            <mxPoint x="280" y="301" as="targetPoint" />
          </mxGeometry>
        </mxCell>
        <mxCell id="0wRoc-RUMOzECIPEcyJ_-17" value="Registrar Usuario" style="edgeLabel;html=1;align=center;verticalAlign=middle;resizable=0;points=[];" connectable="0" vertex="1" parent="0wRoc-RUMOzECIPEcyJ_-16">
          <mxGeometry x="-0.192" relative="1" as="geometry">
            <mxPoint as="offset" />
          </mxGeometry>
        </mxCell>
        <mxCell id="0wRoc-RUMOzECIPEcyJ_-18" style="edgeStyle=orthogonalEdgeStyle;rounded=0;orthogonalLoop=1;jettySize=auto;html=1;entryX=0;entryY=0.5;entryDx=0;entryDy=0;strokeColor=light-dark(#FF9090,#FF9090);" edge="1" parent="1" source="0wRoc-RUMOzECIPEcyJ_-19" target="0wRoc-RUMOzECIPEcyJ_-23">
          <mxGeometry relative="1" as="geometry" />
        </mxCell>
        <mxCell id="0wRoc-RUMOzECIPEcyJ_-19" value="Registrado" style="swimlane;fontStyle=0;childLayout=stackLayout;horizontal=1;startSize=26;fillColor=none;horizontalStack=0;resizeParent=1;resizeParentMax=0;resizeLast=0;collapsible=1;marginBottom=0;whiteSpace=wrap;html=1;" vertex="1" parent="1">
          <mxGeometry x="290" y="248" width="210" height="80" as="geometry" />
        </mxCell>
        <mxCell id="0wRoc-RUMOzECIPEcyJ_-20" value="Entry/Registrar Usuario" style="text;strokeColor=none;fillColor=none;align=left;verticalAlign=top;spacingLeft=4;spacingRight=4;overflow=hidden;rotatable=0;points=[[0,0.5],[1,0.5]];portConstraint=eastwest;whiteSpace=wrap;html=1;" vertex="1" parent="0wRoc-RUMOzECIPEcyJ_-19">
          <mxGeometry y="26" width="210" height="26" as="geometry" />
        </mxCell>
        <mxCell id="0wRoc-RUMOzECIPEcyJ_-21" value="Do/Validar Datos Basicos" style="text;strokeColor=none;fillColor=none;align=left;verticalAlign=top;spacingLeft=4;spacingRight=4;overflow=hidden;rotatable=0;points=[[0,0.5],[1,0.5]];portConstraint=eastwest;whiteSpace=wrap;html=1;" vertex="1" parent="0wRoc-RUMOzECIPEcyJ_-19">
          <mxGeometry y="52" width="210" height="28" as="geometry" />
        </mxCell>
        <mxCell id="0wRoc-RUMOzECIPEcyJ_-23" value="" style="rhombus;whiteSpace=wrap;html=1;" vertex="1" parent="1">
          <mxGeometry x="590" y="248" width="80" height="80" as="geometry" />
        </mxCell>
      </root>
    </mxGraphModel>
  </diagram>
</mxfile>
